<svg t="1751643205803" class="icon" viewBox="0 0 1024 1024" version="1.1" xmlns="http://www.w3.org/2000/svg" p-id="10056" width="16" height="16"><path d="M317.013333 128L128 344.021333V896h768V343.978667L706.986667 128H317.013333z m-13.994666-64h418.005333c10.026667 0 18.346667 3.669333 25.002667 11.008l205.994666 235.989333c5.333333 5.973333 8.021333 13.013333 8.021334 20.992V928a31.146667 31.146667 0 0 1-9.002667 23.04 31.146667 31.146667 0 0 1-23.04 8.96H96a31.146667 31.146667 0 0 1-22.954667-8.96 31.146667 31.146667 0 0 1-9.002666-23.04V331.989333c0-7.978667 2.645333-14.976 7.978666-20.992l206.037334-235.989333a32.426667 32.426667 0 0 1 24.96-11.008zM64 320h896V384h-896V320z m384 8.021333V640h128V327.978667L525.994667 128h-27.989334L448 328.021333z m0-264.021333h128l64 256v352a31.146667 31.146667 0 0 1-8.96 23.04 31.146667 31.146667 0 0 1-23.04 8.96h-192a31.146667 31.146667 0 0 1-23.04-8.96 31.146667 31.146667 0 0 1-8.96-23.04V320l64-256z" fill="#08080A" fill-opacity=".96" p-id="10057"></path></svg>