<svg t="1751643092615" class="icon" viewBox="0 0 1024 1024" version="1.1" xmlns="http://www.w3.org/2000/svg" p-id="6710" width="16" height="16"><path d="M631.296 984.896a51.072 51.072 0 0 1-47.36-31.616l-14.72-35.584a407.04 407.04 0 0 1-114.304-0.128l-14.848 35.712a51.968 51.968 0 0 1-66.88 27.712l-94.592-39.168a51.2 51.2 0 0 1-27.712-66.88l14.784-35.712a404.8 404.8 0 0 1-80.96-80.704l-35.584 14.72a52.032 52.032 0 0 1-66.88-27.712l-39.168-94.592a51.136 51.136 0 0 1 27.712-66.88l35.584-14.72a404.672 404.672 0 0 1 0.128-114.304l-35.712-14.848c-12.672-5.248-22.464-15.104-27.712-27.712s-5.248-26.56 0-39.232l39.168-94.592a52.032 52.032 0 0 1 66.88-27.712l35.712 14.848A403.392 403.392 0 0 1 265.6 184.832l-14.72-35.584a51.136 51.136 0 0 1 27.712-66.88L373.184 43.2a52.096 52.096 0 0 1 66.88 27.712l14.72 35.648a407.04 407.04 0 0 1 114.304 0.128l14.784-35.776a52.096 52.096 0 0 1 66.944-27.712l94.592 39.168a51.008 51.008 0 0 1 27.712 66.88l-14.784 35.712a404.48 404.48 0 0 1 80.896 80.704l35.584-14.72a52.096 52.096 0 0 1 66.88 27.712l39.168 94.592a51.264 51.264 0 0 1-27.712 66.88l-35.584 14.72c5.376 37.888 5.312 76.16-0.128 114.304l35.712 14.784a51.2 51.2 0 0 1 27.712 66.88l-39.168 94.592a51.008 51.008 0 0 1-47.296 31.616 51.392 51.392 0 0 1-19.584-3.904l-35.712-14.784a404.8 404.8 0 0 1-80.704 80.96l14.72 35.584a51.136 51.136 0 0 1-27.712 66.88l-94.592 39.168a49.92 49.92 0 0 1-19.52 3.904z m-30.592-124.992l30.592 73.728 94.592-39.168-30.592-73.728 17.408-11.712a356.928 356.928 0 0 0 96.256-96.512l11.712-17.344 73.92 30.592 39.168-94.592-73.92-30.592 3.968-20.544a354.944 354.944 0 0 0 0.128-136.256l-3.968-20.544 73.728-30.528-39.168-94.592-73.728 30.592-11.712-17.344a355.84 355.84 0 0 0-96.448-96.256l-17.344-11.712 30.592-73.92-94.592-39.168-30.592 73.92-20.544-4.032a358.784 358.784 0 0 0-136.256-0.128l-20.544 4.032-30.528-73.728-94.592 39.168 30.528 73.728-17.344 11.712a355.84 355.84 0 0 0-96.256 96.448l-11.712 17.344-73.856-30.656-39.168 94.592 73.92 30.592-4.032 20.544a354.944 354.944 0 0 0-0.128 136.256l3.968 20.544-73.728 30.528 39.168 94.592 73.728-30.528 11.712 17.344a355.84 355.84 0 0 0 96.448 96.256l17.344 11.712-30.592 73.92 94.592 39.168 30.592-73.856 20.544 3.968a358.784 358.784 0 0 0 136.256 0.128l20.608-3.968z" p-id="6711"></path><path d="M512.128 768a255.296 255.296 0 0 1-236.544-158.08A256.256 256.256 0 0 1 511.936 256c103.936 0 196.8 62.016 236.544 158.08a256.256 256.256 0 0 1-236.352 353.984z m-0.256-460.8a205.056 205.056 0 0 0-189.056 283.136 204.288 204.288 0 0 0 267.456 110.848 204.992 204.992 0 0 0 110.848-267.52A204.288 204.288 0 0 0 511.872 307.2z" p-id="6712"></path></svg>